<svg width="1491" height="209" viewBox="0 0 1491 209" fill="none" xmlns="http://www.w3.org/2000/svg">
<path d="M64.9 206L0.0999999 65H46.5L89.3 165.8H76.7L119.3 65H163.9L99.3 206H64.9ZM170.03 206V65H274.63V97.8H211.23V118H269.83V150.8H211.23V173.2H274.63V206H170.03ZM187.63 53L210.03 19.6H244.03L266.43 53H241.63L227.03 39.4L212.43 53H187.63ZM261.83 30.6L236.23 0.599986H267.23L283.23 30.6H261.83ZM425.08 208.4C409.346 208.4 395.68 205.4 384.08 199.4C372.613 193.267 363.68 184.733 357.28 173.8C351.013 162.867 347.88 150.067 347.88 135.4C347.88 120.733 351.013 108 357.28 97.2C363.68 86.2667 372.613 77.8 384.08 71.8C395.68 65.6667 409.346 62.6 425.08 62.6C434.68 62.6 443.48 63.8667 451.48 66.4C459.613 68.8 466.346 72.2667 471.68 76.8L459.08 110.6C453.08 106.6 447.68 103.867 442.88 102.4C438.08 100.8 432.68 100 426.68 100C415.88 100 407.546 103.067 401.68 109.2C395.946 115.2 393.08 123.933 393.08 135.4C393.08 147 395.946 155.867 401.68 162C407.546 168 415.88 171 426.68 171C432.68 171 438.08 170.267 442.88 168.8C447.68 167.2 453.08 164.4 459.08 160.4L471.68 194.2C466.346 198.733 459.613 202.267 451.48 204.8C443.48 207.2 434.68 208.4 425.08 208.4ZM488.194 206V65H531.394V117H579.594V65H622.794V206H579.594V152.2H531.394V206H488.194ZM710.806 208.4C689.073 208.4 672.74 203.133 661.806 192.6C650.873 181.933 645.406 165.933 645.406 144.6V65H688.606V145.2C688.606 154.133 690.34 160.933 693.806 165.6C697.406 170.267 703.073 172.6 710.806 172.6C718.54 172.6 724.14 170.267 727.606 165.6C731.206 160.933 733.006 154.133 733.006 145.2V65H775.406V144.6C775.406 165.933 770.073 181.933 759.406 192.6C748.873 203.133 732.673 208.4 710.806 208.4ZM696.806 53L720.406 17.6H761.406L724.806 53H696.806ZM797.569 206V65H829.169L894.569 144H888.369V65H928.569V206H896.969L831.769 127H837.969V206H797.569ZM1026.07 208.4C1009.27 208.4 995.066 205.4 983.466 199.4C971.999 193.267 963.266 184.8 957.266 174C951.399 163.067 948.466 150.533 948.466 136.4C948.466 121.467 951.732 108.467 958.266 97.4C964.932 86.3333 974.466 77.8 986.866 71.8C999.266 65.6667 1014.13 62.6 1031.47 62.6C1041.6 62.6 1050.67 63.7333 1058.67 66C1066.8 68.1333 1073.67 71.2667 1079.27 75.4L1066.47 108.4C1062.33 106 1058.47 104.133 1054.87 102.8C1051.4 101.467 1047.87 100.533 1044.27 100C1040.67 99.4667 1036.53 99.2 1031.87 99.2C1018.8 99.2 1009.13 102.333 1002.87 108.6C996.732 114.867 993.666 124.133 993.666 136.4C993.666 148.4 996.399 157.467 1001.87 163.6C1007.47 169.6 1016.33 172.6 1028.47 172.6C1031.93 172.6 1035.87 172.267 1040.27 171.6C1044.8 170.933 1049.47 169.933 1054.27 168.6L1046.87 183V154.4H1019.87V124.8H1081.87V197C1073.73 200.733 1064.87 203.6 1055.27 205.6C1045.67 207.467 1035.93 208.4 1026.07 208.4ZM1194.21 206V99.8H1153.41V65H1278.21V99.8H1237.41V206H1194.21ZM1280.89 135.4C1280.89 120.867 1283.82 108.133 1289.69 97.2C1295.69 86.2667 1304.15 77.8 1315.09 71.8C1326.02 65.6667 1338.95 62.6 1353.89 62.6C1368.95 62.6 1381.95 65.6667 1392.89 71.8C1403.82 77.8 1412.29 86.2667 1418.29 97.2C1424.29 108.133 1427.29 120.867 1427.29 135.4C1427.29 149.933 1424.29 162.667 1418.29 173.6C1412.29 184.533 1403.82 193.067 1392.89 199.2C1381.95 205.333 1368.95 208.4 1353.89 208.4C1338.95 208.4 1326.02 205.333 1315.09 199.2C1304.15 193.067 1295.69 184.533 1289.69 173.6C1283.82 162.533 1280.89 149.8 1280.89 135.4ZM1326.09 135.4C1326.09 147.133 1328.29 156.267 1332.69 162.8C1337.22 169.333 1344.29 172.6 1353.89 172.6C1363.49 172.6 1370.55 169.333 1375.09 162.8C1379.75 156.133 1382.09 147 1382.09 135.4C1382.09 123.8 1379.75 114.733 1375.09 108.2C1370.55 101.667 1363.49 98.4 1353.89 98.4C1344.29 98.4 1337.22 101.667 1332.69 108.2C1328.29 114.6 1326.09 123.667 1326.09 135.4ZM1311.89 53L1337.49 17.6H1370.69L1396.29 53H1368.69L1354.09 37.8L1339.49 53H1311.89ZM1447.18 206V65H1490.38V206H1447.18Z" fill="#F6F6F8"/>
</svg>
